<svg width="24" height="24" viewBox="0 0 24 24" fill="none" xmlns="http://www.w3.org/2000/svg">
<g id="Frame 60809">
<g id="Group 20461">
<path id="BreES (Stroke)" fill-rule="evenodd" clip-rule="evenodd" d="M7.52741 6.3022H11.8941C13.8395 6.3022 15.3227 6.55477 16.3436 7.05991C17.3784 7.56505 17.8958 8.41149 17.8958 9.59924C17.8958 10.5549 17.5991 11.3058 17.0059 11.8519C16.6133 12.2132 16.1544 12.5058 15.6289 12.7297C15.3603 12.8441 15.0742 12.9406 14.7708 13.0192C15.0847 13.0793 15.3754 13.1587 15.6429 13.2574C16.1042 13.4278 16.4965 13.6555 16.8196 13.9407C17.3301 14.3912 17.5853 15.0875 17.5853 16.0295C17.5853 17.3947 17.0266 18.4937 15.909 19.3265C14.8053 20.1457 12.9979 20.5552 10.4868 20.5552H5.51996L7.52741 6.3022ZM15.882 12.9802C16.2153 13.142 16.8867 13.3387 17.1516 13.5724C17.8047 14.1488 18.084 15.0039 18.084 16.0295C18.084 17.5522 17.4496 18.7962 16.209 19.7207L16.2082 19.7213C14.9719 20.6388 13.0284 21.0487 10.4868 21.0487H4.94696L7.09341 5.80875H11.8941C13.8689 5.80875 15.4427 6.06284 16.5655 6.61797C17.1542 6.90558 17.6195 7.30297 17.9344 7.81821C18.2489 8.33265 18.3945 8.93349 18.3945 9.59924C18.3945 10.6634 18.0596 11.5559 17.3455 12.2132C17.0195 12.5133 16.2837 12.7686 15.882 12.9802Z" fill="#1458DD"/>
<path id="BreES (Stroke)_2" fill-rule="evenodd" clip-rule="evenodd" d="M5.57899 7.2547C6.10773 7.2547 6.56445 7.2547 6.99381 7.2547C7.12811 7.2547 7.25796 6.3022 7.38359 6.3022C8.12272 6.3022 8.71592 6.3022 9.21235 6.3022C9.30434 6.3022 9.39301 7.2547 9.47867 7.2547C10.5513 7.2547 11.1519 7.2547 11.8946 7.2547C13.84 7.2547 11.5228 7.50727 12.5437 8.01241C13.5785 8.51754 12.147 9.36399 12.147 10.5517C12.147 11.5074 11.8503 12.2583 11.2571 12.8044C10.8645 13.1657 10.4055 13.4583 9.88013 13.6822C9.61145 13.7966 9.3254 13.8931 9.02197 13.9717C9.3359 14.0318 9.6266 14.1112 9.89407 14.2099C10.3554 14.3802 10.163 14.608 10.4861 14.8932C10.9966 15.3437 11.2519 16.04 11.2519 16.982C11.2519 18.3472 16.15 18.97 15.0325 19.8028C13.9287 20.6219 11.0495 21.5077 8.53842 21.5077H3.57154L5.57899 7.2547ZM10.1332 13.9327C10.4665 14.0945 10.5532 14.2912 10.8181 14.5249C11.4712 15.1013 11.7506 15.9564 11.7506 16.982C11.7506 18.5047 16.5731 19.2725 15.3325 20.197L15.3317 20.1976C14.0954 21.1151 11.0799 22.0012 8.53842 22.0012H2.99854L5.14498 6.76124H7.09125L7.43231 5.80875H9.28378L9.57612 6.76124H11.8946C13.8693 6.76124 11.6428 7.01534 12.7656 7.57047C13.3543 7.85808 11.8707 8.25546 12.1856 8.77071C12.5001 9.28515 12.6457 9.88599 12.6457 10.5517C12.6457 11.6159 12.3108 12.5084 11.5967 13.1657C11.2707 13.4658 10.5348 13.7211 10.1332 13.9327Z" fill="#1458DD"/>
<path id="BreES" d="M17.4385 11.5616C18.4134 11.746 19.1918 12.0919 19.7736 12.5991C20.3554 13.1063 20.6463 13.8902 20.6463 14.9507C20.6463 16.4877 20.0095 17.725 18.7358 18.6626C17.4778 19.5848 15.4179 20.0459 12.5561 20.0459H6.89526L9.18317 3.99951H14.16C16.3771 3.99951 18.0675 4.28386 19.2311 4.85255C20.4104 5.42125 21.0001 6.37419 21.0001 7.71139C21.0001 8.7873 20.662 9.63265 19.9859 10.2475C19.3097 10.8623 18.4606 11.3003 17.4385 11.5616ZM13.8533 10.2013C14.7496 10.2013 15.3393 10.0246 15.6223 9.67108C15.9211 9.30219 16.0705 8.84878 16.0705 8.31082C16.0705 7.94194 15.9211 7.67296 15.6223 7.50389C15.3393 7.33482 14.8597 7.25029 14.1835 7.25029H13.4524L13.0278 10.2013H13.8533ZM13.0278 16.7029C14.0813 16.7029 14.7968 16.5185 15.1742 16.1496C15.5673 15.7653 15.7639 15.2274 15.7639 14.5357C15.7639 13.6442 15.0956 13.1985 13.759 13.1985H12.6032L12.1079 16.7029H13.0278Z" fill="#1458DD"/>
</g>
</g>
</svg>
