<svg width="16" height="16" viewBox="0 0 16 16" fill="none" xmlns="http://www.w3.org/2000/svg">
<g id="board-svgrepo-com 1" opacity="0.75">
<g id="&#240;&#159;&#148;&#141;-Product-Icons">
<g id="ic_fluent_board_24_regular">
<path id="&#240;&#159;&#142;&#168;-Color" d="M12.1676 1.66547C13.3229 1.66547 14.2671 2.56968 14.3308 3.70911L14.3343 3.83206L14.3339 11.8346C14.3337 13.0312 13.3637 14.0012 12.1671 14.0012H4.1667C3.01134 14.0012 2.06717 13.097 2.00343 11.9576L2 11.8346L2.0004 3.83208C2.00054 2.63552 2.97055 1.66547 4.1671 1.66547H12.1676ZM7.66667 6.33213L3 6.3328L3.00007 11.8346L3.00485 11.9417C3.05892 12.5359 3.55844 13.0012 4.16667 13.0012L7.66667 13.0008V6.33213ZM13.3333 10.3321L8.66667 10.3328V13.0008L12.1671 13.0012C12.8114 13.0012 13.3338 12.4788 13.3339 11.8345L13.3333 10.3321ZM12.1676 2.66547L8.66667 2.6648V9.3328L13.3333 9.33213L13.3342 3.83211L13.3294 3.72496C13.2753 3.13083 12.7758 2.66547 12.1676 2.66547ZM7.66667 2.6648L4.16715 2.66547L4.07149 2.66934C3.4719 2.71805 3.00047 3.22006 3.0004 3.83215L3 5.3328L7.66667 5.33213V2.6648Z" fill="#2A303C" stroke="#2A303C" stroke-width="0.3"/>
</g>
</g>
</g>
</svg>
