<svg width="14" height="14" viewBox="0 0 14 14" fill="none" xmlns="http://www.w3.org/2000/svg">
<g id="calendar-svgrepo-com 1" opacity="0.75">
<g clip-path="url(#clip0_9055_82)">
<g id="Group">
<g id="Group_2">
<path id="Vector" d="M11.8886 0.997139H10.9371V0.608568C10.9371 0.282854 10.6686 0.0142822 10.3429 0.0142822C10.0171 0.0142822 9.74857 0.282854 9.74857 0.608568V0.994282H4.22V0.608568C4.22 0.282854 3.95143 0.0142822 3.62571 0.0142822C3.3 0.0142822 3.03143 0.282854 3.03143 0.608568V0.994282H2.11143C0.951429 0.997139 0 1.94571 0 3.10571V11.8743C0 13.0343 0.951429 13.9857 2.11143 13.9857H11.86C13.02 13.9857 13.9714 13.0343 14 11.9057V3.10571C14 1.94571 13.0486 0.997139 11.8886 0.997139ZM12.8114 11.8743C12.8114 12.38 12.3943 12.7971 11.8886 12.7971H2.11143C1.60571 12.7971 1.18857 12.38 1.18857 11.8743V3.07714C1.18857 2.57142 1.60571 2.15428 2.11143 2.15428H3.03429V2.54C3.03429 2.86571 3.30286 3.13428 3.62857 3.13428C3.95429 3.13428 4.22286 2.89714 4.22286 2.56857V2.18571H9.75143V2.54285C9.75143 2.86857 10.02 3.13714 10.3457 3.13714C10.6429 3.13714 10.9114 2.9 10.94 2.57142V2.18571H11.8914C12.3971 2.18571 12.8143 2.60285 12.8143 3.10857V11.8743H12.8114Z" fill="#2A303C"/>
<path id="Vector_2" d="M3.68571 5.27713H2.97142C2.64571 5.27713 2.37714 5.5457 2.37714 5.87142C2.37714 6.19713 2.64571 6.4657 2.97142 6.4657H3.68571C3.98285 6.4657 4.25142 6.19713 4.27999 5.87142C4.27999 5.54284 4.01142 5.27713 3.68571 5.27713Z" fill="#2A303C"/>
<path id="Vector_3" d="M11.0286 5.27713H10.3143C9.98857 5.27713 9.72 5.5457 9.72 5.87142C9.72 6.19713 9.98857 6.4657 10.3143 6.4657H11.0286C11.3257 6.4657 11.5943 6.19713 11.6229 5.87142C11.6229 5.54284 11.3543 5.27713 11.0286 5.27713Z" fill="#2A303C"/>
<path id="Vector_4" d="M7.34284 5.27713H6.62856C6.30284 5.27713 6.03427 5.5457 6.03427 5.87142C6.03427 6.19713 6.30284 6.4657 6.62856 6.4657H7.34284C7.66856 6.4657 7.93713 6.19713 7.93713 5.87142C7.93713 5.54284 7.66856 5.27713 7.34284 5.27713Z" fill="#2A303C"/>
<path id="Vector_5" d="M3.68571 7.74286H2.97142C2.64571 7.74286 2.37714 8.01143 2.37714 8.33714C2.37714 8.66286 2.64571 8.93143 2.97142 8.93143H3.68571C3.98285 8.93143 4.25142 8.69429 4.27999 8.33714C4.27999 8.01143 4.01142 7.74286 3.68571 7.74286Z" fill="#2A303C"/>
<path id="Vector_6" d="M11.0286 7.74286H10.3143C9.98857 7.74286 9.72 8.01143 9.72 8.33714C9.72 8.66286 9.98857 8.93143 10.3143 8.93143H11.0286C11.3257 8.93143 11.5943 8.69429 11.6229 8.33714C11.6229 8.01143 11.3543 7.74286 11.0286 7.74286Z" fill="#2A303C"/>
<path id="Vector_7" d="M7.34284 7.74286H6.62856C6.30284 7.74286 6.03427 8.01143 6.03427 8.33714C6.03427 8.66286 6.30284 8.93143 6.62856 8.93143H7.34284C7.66856 8.93143 7.93713 8.69429 7.93713 8.33714C7.93713 8.01143 7.66856 7.74286 7.34284 7.74286Z" fill="#2A303C"/>
<path id="Vector_8" d="M3.68571 10.24H2.97142C2.64571 10.24 2.37714 10.5086 2.37714 10.8343C2.37714 11.16 2.64571 11.4286 2.97142 11.4286H3.68571C3.98285 11.4286 4.25142 11.16 4.27999 10.8343C4.27999 10.5086 4.01142 10.24 3.68571 10.24Z" fill="#2A303C"/>
<path id="Vector_9" d="M11.0286 10.24H10.3143C9.98857 10.24 9.72 10.5086 9.72 10.8343C9.72 11.16 9.98857 11.4286 10.3143 11.4286H11.0286C11.3257 11.4286 11.5943 11.16 11.6229 10.8343C11.6229 10.5086 11.3543 10.24 11.0286 10.24Z" fill="#2A303C"/>
<path id="Vector_10" d="M7.34284 10.24H6.62856C6.30284 10.24 6.03427 10.5086 6.03427 10.8343C6.03427 11.16 6.30284 11.4286 6.62856 11.4286H7.34284C7.66856 11.4286 7.93713 11.16 7.93713 10.8343C7.93713 10.5086 7.66856 10.24 7.34284 10.24Z" fill="#2A303C"/>
</g>
</g>
</g>
</g>
<defs>
<clipPath id="clip0_9055_82">
<rect width="14" height="14" fill="white"/>
</clipPath>
</defs>
</svg>
