<svg width="12" height="13" viewBox="0 0 12 13" fill="none" xmlns="http://www.w3.org/2000/svg">
<g id="left-alignment-paragraph-svgrepo-com 1">
<g id="Group">
<path id="Vector" d="M11.5774 1.22223H0.422689C0.189009 1.22223 0 1.41134 0 1.64492V3.35501C0 3.58859 0.189009 3.77775 0.422689 3.77775H11.5774C11.811 3.77775 12 3.58859 12 3.35501V1.64492C12 1.41134 11.811 1.22223 11.5774 1.22223Z" fill="#1458DD"/>
<path id="Vector_2" d="M11.5774 5.22229H0.422689C0.189009 5.22229 0 5.41135 0 5.64493V7.35508C0 7.58871 0.189009 7.77776 0.422689 7.77776H11.5774C11.811 7.77776 12 7.58871 12 7.35508V5.64493C12 5.41135 11.811 5.22229 11.5774 5.22229Z" fill="#1458DD"/>
<path id="Vector_3" d="M5.5773 9.22229H0.422689C0.189009 9.22229 0 9.41137 0 9.64493V11.3551C0 11.5887 0.189009 11.7778 0.422689 11.7778H5.5773C5.81098 11.7778 5.99999 11.5887 5.99999 11.3551V9.64493C6.00001 9.41137 5.811 9.22229 5.5773 9.22229Z" fill="#1458DD"/>
</g>
</g>
</svg>
